<svg width="288" height="288" viewBox="0 0 288 288" fill="none" xmlns="http://www.w3.org/2000/svg">
<path d="M154.719 225.732C149.677 232.08 142.702 240.479 136.723 245.814M136.723 245.814C136.035 246.429 133.154 240.127 133.045 239.825C130.664 233.209 129.222 226.484 127.899 219.598M136.723 245.814C155.884 206.146 146.272 162.655 120.138 145.236C117.548 143.509 114.727 141.633 111.751 140.016M111.751 140.016C107.012 137.44 101.881 135.522 96.6633 135.914C91.8484 136.275 85.7282 138.774 83.5811 143.347C79.5707 151.89 88.4479 160.713 97.3455 158.827C105.165 157.169 112.439 147.893 111.751 140.016ZM111.751 140.016C111.737 139.85 111.719 139.684 111.697 139.519C106.469 99.7348 60.0563 91.2684 31.416 107.328" stroke="#E34D18" stroke-width="2" stroke-miterlimit="1.5" stroke-linecap="round" stroke-linejoin="round"/>
</svg>
