<svg width="141" height="110" viewBox="0 0 141 110" fill="none" xmlns="http://www.w3.org/2000/svg">
<path d="M37.5195 48.3424C35.8165 47.9855 32.8343 47.5368 34.5303 48.5968C36.2263 49.6568 36.7351 50.9182 36.7775 51.4164C37.4135 51.0278 38.4778 50.1677 39.6396 49.6674C40.9509 49.1027 44.1234 49.2859 45.2045 50.1975C44.7382 49.4343 45.1728 47.8584 45.4484 47.1659C47.0342 42.2136 43.7842 45.3003 41.961 47.4627C38.1959 40.9585 37.4312 45.3391 37.5195 48.3424Z" stroke="#DDBA41"/>
<path d="M104 45C105.2 41 110.333 38.1667 113 37M115.5 32.5V38M112.5 35H119M65 35C69.3333 34.5 78.8 35.4 82 43M61.5 33.5L63.5 38M64 33L61.5 38" stroke="#E34D18" stroke-linecap="round" stroke-linejoin="round"/>
<path d="M94.5 43C95.5 38 96.2 27.9 89 23.5M86.5 18.5L86 25M82 23L90.5 19.5M82.5 19.5L85 20.5L87.5 22" stroke="#DDBA41" stroke-linecap="round" stroke-linejoin="round"/>
<path d="M64.5 22C67.8333 22.3333 74.9 24.2 76.5 29M61.5 20.5L62.5 23.5M59.5 22L60 23" stroke="#477C4E" stroke-linecap="round" stroke-linejoin="round"/>
<path d="M102.5 32.5C102.333 29.6667 102.6 24 105 24M106.5 22.5V25M108.5 23.5V24.5" stroke="#0E519D" stroke-linecap="round" stroke-linejoin="round"/>
<circle cx="46.5" cy="43.5" r="1.5" fill="#E34D18"/>
<circle cx="38.5" cy="42.5" r="1.5" fill="#E34D18"/>
<circle cx="32.5" cy="47.5" r="1.5" fill="#E34D18"/>
<path d="M42.4939 87H38.2362C37.1248 87 36.0265 86.4929 35.3128 86.0774C35.2666 86.2518 35.1906 86.4246 35.069 86.5758C34.9136 86.7693 34.6233 87 34.1247 87H32.0071C31.7255 87 31.4969 86.7709 31.4969 86.4886C31.4969 86.2062 31.7255 85.9771 32.0071 85.9771H34.1247C34.2397 85.9771 34.265 85.9459 34.2744 85.9342C34.3481 85.8426 34.3619 85.6268 34.3502 85.4463L29.538 82.3715C29.201 82.4758 28.8363 82.4684 28.5001 82.3462C28.0675 82.1886 27.7226 81.8536 27.5548 81.4268L27.542 81.3944C27.3454 80.8875 27.2939 80.3549 27.288 79.9728C26.7153 79.9309 25.6667 79.8519 24.261 79.7368C22.2682 79.5736 16.8838 79.5212 15.9972 79.5136L3.78564 85.7314C3.14388 86.0584 2.41641 86.106 1.73868 85.8651C1.0607 85.6253 0.525051 85.131 0.230187 84.4735V84.4735L0.228147 84.4689C-0.0554933 83.8324 -0.0753889 83.1233 0.172541 82.4717C0.420726 81.8196 0.907404 81.3036 1.54304 81.0185L14.8502 75.0543C15.7067 74.1058 23.8909 65.0587 27.4655 61.6462C30.7891 58.4727 33.6671 56.2755 34.318 55.7879C34.4777 55.2754 34.944 53.8145 35.2304 53.2816C35.2544 53.2371 35.2817 53.1803 35.3138 53.1146C35.7222 52.2753 36.8068 50.0457 40.6112 49.164C44.3651 48.2943 46.7783 51.1374 47.2566 51.7636C47.6045 51.9365 48.613 52.4689 49.2086 53.1072C49.9636 53.9163 50.145 55.1624 50.1521 55.2151C50.1774 55.3948 50.1052 55.5746 49.9631 55.6874C49.8211 55.7999 49.6303 55.8291 49.4612 55.7623C49.4612 55.7623 49.4425 55.7552 49.4114 55.7436C49.1444 56.0367 48.6924 56.4722 48.2036 56.6821C47.8437 56.8368 47.5292 56.9049 47.2958 56.9333L46.9023 58.1344C46.8515 58.5077 46.5077 61.0723 46.5077 62.0167C46.5077 62.1285 46.5245 62.3192 46.5444 62.5399C46.6898 64.1793 47.0762 68.534 43.483 73.5491C42.2094 75.3267 40.5762 76.5874 38.9218 77.4811C38.9338 78.2017 38.9075 79.689 38.5214 80.3017C38.4803 80.3669 38.4341 80.4334 38.3834 80.4994L43.0611 83.0566C43.0754 83.0642 43.0892 83.0727 43.1027 83.0819C43.1502 83.1128 44.737 84.1472 46.2319 84.1472H50.4899C50.7715 84.1472 51 84.3763 51 84.6586C51 84.9409 50.7715 85.1701 50.4899 85.1701H46.2312C45.1117 85.1701 44.0021 84.7223 43.2945 84.3653C43.254 84.4919 43.1935 84.617 43.1048 84.7315C42.9497 84.9315 42.6528 85.1703 42.1199 85.1703H40.0021C39.7205 85.1703 39.4919 84.9412 39.4919 84.6589C39.4919 84.3766 39.7205 84.1474 40.0021 84.1474H42.1199C42.1541 84.1474 42.2679 84.1441 42.2992 84.1037C42.338 84.0536 42.3513 83.9421 42.3482 83.8327L37.5822 81.2274C37.3256 81.3847 37.0455 81.4944 36.7611 81.5181C36.3558 81.5532 35.9865 81.4043 35.7179 81.1034C35.2643 80.5958 35.1631 79.6573 35.1559 78.9776C33.4174 79.4601 32.0137 79.5985 31.4921 79.6353C31.4054 79.7322 31.2692 79.8948 31.0878 80.1408C31.0187 80.2344 30.8845 80.4728 30.7608 81.019C30.7019 81.2796 30.5886 81.5212 30.4318 81.7296L35.0947 84.709C35.1098 84.7185 35.1241 84.7287 35.1381 84.7397C35.2001 84.7875 36.769 85.9769 38.2359 85.9769H42.4936C42.7752 85.9769 43.0037 86.206 43.0037 86.4883C43.0037 86.7706 42.7755 87 42.4939 87ZM1.4428 84.484C1.61472 84.6704 1.83077 84.8136 2.07767 84.9011C2.49013 85.0471 2.93268 85.0184 3.32319 84.8197L15.6457 78.5454C15.7182 78.5083 15.7944 78.4886 15.8804 78.4899C16.135 78.4917 22.1427 78.5375 24.3439 78.7178C26.5225 78.8957 27.8389 78.9873 27.852 78.9883C27.992 78.998 28.1216 79.065 28.2106 79.1734C28.2999 79.2821 28.3404 79.4225 28.3228 79.5621C28.322 79.5685 28.2325 80.3531 28.495 81.03C28.5649 81.2082 28.6873 81.3266 28.8478 81.3849C29.0082 81.4435 29.1852 81.4317 29.3362 81.354C29.3431 81.3499 29.3502 81.3463 29.3574 81.3425C29.5645 81.2261 29.7135 81.0264 29.7663 80.7932C29.8923 80.2377 30.0609 79.814 30.2677 79.5335C30.6705 78.9873 30.8998 78.7773 30.9245 78.7553C31.0125 78.6768 31.1248 78.6316 31.2424 78.6265C31.3181 78.6231 38.8626 78.2447 42.654 72.9531C46.0261 68.2471 45.6766 64.3118 45.5277 62.6315C45.505 62.3762 45.4871 62.1747 45.4871 62.0177C45.4871 60.9335 45.8807 58.0712 45.8973 57.95C45.9016 57.9196 45.9085 57.8896 45.9179 57.8605L46.3447 56.5589L45.2777 55.356C45.2389 55.312 45.2086 55.2626 45.1872 55.2102L45.1867 55.2089C45.1668 55.1603 45.1548 55.1087 45.1504 55.0565V55.055V55.0535L45.1502 55.0524V55.0512V55.0501L45.1499 55.0489V55.0476C45.1453 54.9762 45.1558 54.9036 45.1821 54.8343L45.1826 54.8333L45.1831 54.832V54.832L45.1836 54.8302L45.1844 54.8289L45.1846 54.8277L45.1854 54.8259L45.1859 54.8248L45.1864 54.8238L45.1867 54.8228L45.1872 54.8215L45.1877 54.8205L45.1879 54.8195L45.1884 54.8185L45.1889 54.8172L45.1895 54.8161L45.19 54.8151L45.1902 54.8141L45.1907 54.8128L45.1912 54.8118L45.1918 54.8108L45.1923 54.8098L45.1925 54.8087L45.1933 54.8075L46.3332 52.2359C45.7718 51.535 43.8253 49.4691 40.8407 50.1605C37.5103 50.9328 36.6139 52.776 36.2311 53.5631C36.1918 53.6437 36.1581 53.7125 36.1288 53.7672C35.8895 54.2121 35.409 55.7099 35.2437 56.2495C35.2113 56.3551 35.1455 56.4474 35.0565 56.5126C35.0251 56.5356 31.8831 58.8409 28.169 62.3872C24.4416 65.9463 15.6233 75.722 15.5348 75.8204C15.4873 75.8731 15.4294 75.9153 15.3646 75.9445L1.95907 81.9531C1.57212 82.1265 1.27624 82.4403 1.12498 82.8371C1.03698 83.0681 1.00459 83.311 1.02678 83.5501L15.0698 77.1824C14.9695 76.6096 15.2509 76.0595 15.7962 75.7711C16.0459 75.6389 16.3543 75.735 16.4854 75.9846C16.617 76.2347 16.5216 76.5439 16.2724 76.6756C16.1125 76.7602 16.047 76.8753 16.0771 77.0177C16.0852 77.0566 16.1018 77.0962 16.1248 77.1302C16.1301 77.1374 16.1357 77.1448 16.1408 77.1522C16.1747 77.1934 16.2194 77.2228 16.2709 77.2264C16.5699 77.242 18.3551 76.973 19.9322 76.7323C21.6142 76.4759 23.5203 76.1849 24.7906 76.0534C25.2494 76.0056 25.7369 75.9649 26.2455 75.9225C28.6644 75.7207 31.4061 75.4919 33.8148 74.3388C36.7739 72.9221 39.121 69.4699 39.7947 65.5438C40.4405 61.7786 37.9974 60.6432 37.9724 60.632C37.7151 60.5174 37.599 60.2152 37.7135 59.9569C37.8278 59.6986 38.1291 59.5823 38.3869 59.6973C38.4188 59.7116 41.5792 61.1762 40.7999 65.717C40.0719 69.9599 37.5026 73.7062 34.2545 75.2614C31.6773 76.4956 28.7123 76.7428 26.3302 76.9415C25.8287 76.9835 25.3477 77.0234 24.8957 77.0704C23.6496 77.1995 21.7562 77.4885 20.086 77.7432C17.8646 78.0823 16.5869 78.2748 16.2033 78.2465C15.9957 78.2327 15.7998 78.1628 15.6302 78.0503L1.4428 84.484ZM36.1813 78.6635C36.163 79.3126 36.2352 80.1488 36.4785 80.4214C36.5356 80.4855 36.5912 80.5075 36.6764 80.4988C36.9703 80.4743 37.42 80.1339 37.6582 79.7557C37.8051 79.5228 37.886 78.7669 37.9005 77.9874C37.3167 78.2529 36.7382 78.4761 36.1813 78.6635ZM46.6413 55.3537L47.1448 55.9214C47.2935 55.9053 47.5249 55.8613 47.8011 55.7426C47.9659 55.672 48.1422 55.5426 48.3041 55.4007C48.1144 55.3552 47.9215 55.3179 47.7432 55.2979C47.4392 55.2639 47.0222 55.2995 46.6413 55.3537ZM47.4805 54.2623C47.6114 54.2623 47.7376 54.2679 47.8557 54.2809C48.1952 54.3188 48.5646 54.4052 48.8916 54.4978C48.7895 54.2571 48.6503 54.0068 48.4631 53.8063C48.1348 53.4542 47.5859 53.1062 47.1675 52.8727L46.5176 54.3382C46.824 54.2958 47.1645 54.2623 47.4805 54.2623ZM42.3497 54.8246C41.4226 54.8246 40.668 54.0684 40.668 53.1386C40.668 52.2091 41.4226 51.4529 42.3497 51.4529C43.2772 51.4529 44.0314 52.2091 44.0314 53.1386C44.0314 54.0684 43.2772 54.8246 42.3497 54.8246ZM42.3497 52.4758C41.985 52.4758 41.6883 52.7732 41.6883 53.1386C41.6883 53.5043 41.985 53.8017 42.3497 53.8017C42.7145 53.8017 43.0111 53.5043 43.0111 53.1386C43.0111 52.7732 42.7145 52.4758 42.3497 52.4758Z" fill="#484343"/>
<path d="M1 91.0561C39.8413 91.056 101.008 90.6548 137 92" stroke="#484343" stroke-opacity="0.25" stroke-miterlimit="1.5" stroke-linecap="round" stroke-linejoin="round"/>
<path d="M3.00455 87.5908C39.4773 87.892 96.916 88.0767 130.705 89.3272" stroke="#DDBA41" stroke-miterlimit="1.5" stroke-linecap="round" stroke-linejoin="round"/>
<path d="M3.30701 93.4585C33.2587 93.4585 100.739 93.4587 140.5 93.4585" stroke="#0E519D" stroke-miterlimit="1.5" stroke-linecap="round" stroke-linejoin="round"/>
</svg>
