<svg width="128" height="110" viewBox="0 0 128 110" fill="none" xmlns="http://www.w3.org/2000/svg">
<path d="M42.4939 50H38.2362C37.1248 50 36.0265 49.4929 35.3128 49.0774C35.2666 49.2518 35.1906 49.4246 35.069 49.5758C34.9136 49.7693 34.6234 50 34.1247 50H32.0071C31.7255 50 31.4969 49.7709 31.4969 49.4886C31.4969 49.2062 31.7255 48.9771 32.0071 48.9771H34.1247C34.2397 48.9771 34.265 48.9459 34.2744 48.9342C34.3481 48.8426 34.3619 48.6268 34.3502 48.4463L29.538 45.3715C29.201 45.4758 28.8363 45.4684 28.5001 45.3462C28.0675 45.1886 27.7226 44.8536 27.5548 44.4268L27.542 44.3944C27.3454 43.8875 27.2939 43.3549 27.288 42.9728C26.7153 42.9309 25.6667 42.8519 24.261 42.7368C22.2682 42.5736 16.8838 42.5212 15.9972 42.5136L3.78564 48.7314C3.14388 49.0584 2.41641 49.106 1.73868 48.8651C1.0607 48.6253 0.525051 48.1309 0.230187 47.4735C0.230187 47.4732 0.229932 47.473 0.229932 47.4727C0.229422 47.4714 0.228657 47.4702 0.228147 47.4689C-0.0554933 46.8324 -0.0753889 46.1233 0.172541 45.4717C0.420726 44.8196 0.907404 44.3036 1.54304 44.0185L14.8502 38.0543C15.7067 37.1059 23.8909 28.0587 27.4655 24.6462C30.7891 21.4727 33.6671 19.2755 34.318 18.7879C34.4777 18.2754 34.944 16.8145 35.2304 16.2816C35.2544 16.2371 35.2817 16.1803 35.3138 16.1146C35.7222 15.2753 36.8068 13.0457 40.6112 12.164C44.3651 11.2943 46.7783 14.1374 47.2566 14.7636C47.6045 14.9365 48.613 15.4689 49.2086 16.1072C49.9636 16.9163 50.145 18.1624 50.1521 18.2151C50.1774 18.3948 50.1052 18.5746 49.9631 18.6874C49.8211 18.7999 49.6303 18.8291 49.4611 18.7623C49.4599 18.7618 49.4425 18.7552 49.4114 18.7436C49.1444 19.0367 48.6924 19.4722 48.2036 19.6821C47.8437 19.8368 47.5292 19.9049 47.2958 19.9333L46.9023 21.1344C46.8515 21.5077 46.5077 24.0723 46.5077 25.0167C46.5077 25.1285 46.5245 25.3192 46.5444 25.5399C46.6898 27.1793 47.0762 31.534 43.483 36.5491C42.2094 38.3267 40.5762 39.5874 38.9218 40.4811C38.9338 41.2017 38.9075 42.689 38.5214 43.3017C38.4803 43.3669 38.4341 43.4334 38.3834 43.4994L43.0611 46.0566C43.0754 46.0642 43.0892 46.0727 43.1027 46.0819C43.1502 46.1128 44.737 47.1472 46.2319 47.1472H50.4899C50.7715 47.1472 51 47.3763 51 47.6586C51 47.9409 50.7715 48.1701 50.4899 48.1701H46.2312C45.1117 48.1701 44.0021 47.7223 43.2945 47.3653C43.254 47.4919 43.1935 47.6169 43.1048 47.7315C42.9497 47.9315 42.6528 48.1703 42.1199 48.1703H40.0021C39.7205 48.1703 39.4919 47.9412 39.4919 47.6589C39.4919 47.3766 39.7205 47.1474 40.0021 47.1474H42.1199C42.1541 47.1474 42.2679 47.1441 42.2992 47.1037C42.338 47.0536 42.3513 46.9421 42.3482 46.8327L37.5822 44.2274C37.3256 44.3847 37.0455 44.4944 36.7611 44.5181C36.3558 44.5532 35.9865 44.4043 35.7179 44.1034C35.2643 43.5958 35.1631 42.6573 35.1559 41.9776C33.4174 42.4601 32.0137 42.5985 31.4921 42.6353C31.4054 42.7322 31.2692 42.8948 31.0878 43.1408C31.0187 43.2344 30.8845 43.4728 30.7608 44.019C30.7019 44.2796 30.5886 44.5212 30.4318 44.7296L35.0947 47.709C35.1098 47.7185 35.1241 47.7287 35.1381 47.7397C35.2001 47.7875 36.769 48.9769 38.2359 48.9769H42.4936C42.7752 48.9769 43.0037 49.206 43.0037 49.4883C43.0037 49.7706 42.7755 50 42.4939 50ZM1.4428 47.484C1.61472 47.6704 1.83077 47.8136 2.07767 47.9011C2.49013 48.0471 2.93268 48.0184 3.32319 47.8197L15.6457 41.5454C15.7182 41.5083 15.7944 41.4886 15.8804 41.4899C16.135 41.4917 22.1427 41.5375 24.3439 41.7178C26.5225 41.8957 27.8389 41.9873 27.852 41.9883C27.992 41.998 28.1216 42.065 28.2106 42.1734C28.2999 42.2821 28.3404 42.4225 28.3228 42.5621C28.322 42.5685 28.2325 43.3531 28.495 44.03C28.5649 44.2082 28.6873 44.3266 28.8478 44.3849C29.0082 44.4435 29.1852 44.4317 29.3362 44.354C29.3431 44.3499 29.3502 44.3463 29.3574 44.3425C29.5645 44.2261 29.7135 44.0264 29.7663 43.7932C29.8923 43.2378 30.0609 42.814 30.2677 42.5335C30.6705 41.9873 30.8998 41.7773 30.9245 41.7553C31.0125 41.6768 31.1248 41.6316 31.2424 41.6265C31.3181 41.6231 38.8626 41.2447 42.654 35.9531C46.0261 31.2471 45.6766 27.3118 45.5277 25.6315C45.505 25.3762 45.4871 25.1747 45.4871 25.0177C45.4871 23.9335 45.8807 21.0712 45.8973 20.95C45.9016 20.9196 45.9085 20.8896 45.9179 20.8605L46.3447 19.5589L45.2777 18.356C45.2389 18.312 45.2086 18.2626 45.1872 18.2102C45.1869 18.2097 45.1869 18.2092 45.1867 18.2089C45.1867 18.2089 45.1867 18.2089 45.1867 18.2087C45.1668 18.1601 45.1548 18.1087 45.1504 18.0565V18.0563C45.1504 18.0558 45.1504 18.055 45.1504 18.055C45.1504 18.0545 45.1504 18.054 45.1504 18.0535C45.1499 18.0535 45.1502 18.0529 45.1502 18.0524C45.1502 18.0522 45.1502 18.0522 45.1502 18.0522C45.1502 18.0517 45.1502 18.0514 45.1502 18.0512C45.1502 18.0512 45.1502 18.0506 45.1502 18.0501C45.1502 18.0499 45.1502 18.0499 45.1502 18.0499C45.1499 18.0496 45.1499 18.0491 45.1499 18.0489C45.1499 18.0483 45.1499 18.0481 45.1499 18.0476C45.1453 17.9762 45.1558 17.9036 45.1821 17.8343C45.1823 17.834 45.1823 17.8338 45.1826 17.8333C45.1826 17.8328 45.1831 17.8325 45.1831 17.832C45.1831 17.8317 45.1831 17.8315 45.1833 17.8312C45.1836 17.8312 45.1836 17.8307 45.1836 17.8302C45.1838 17.8302 45.1838 17.83 45.1838 17.83C45.1838 17.8294 45.1838 17.8289 45.1844 17.8289C45.1844 17.8287 45.1846 17.8284 45.1846 17.8277C45.1849 17.8274 45.1849 17.8271 45.1849 17.8271C45.1854 17.8266 45.1854 17.8264 45.1854 17.8259L45.1856 17.8256C45.1856 17.8254 45.1856 17.8251 45.1859 17.8248C45.1859 17.8248 45.1854 17.8248 45.1864 17.8238C45.1864 17.8231 45.1867 17.8228 45.1867 17.8228C45.1867 17.8225 45.1869 17.8223 45.1869 17.8223C45.1869 17.822 45.1872 17.8218 45.1872 17.8215C45.1872 17.8215 45.1867 17.8213 45.1877 17.8205C45.1877 17.8202 45.1879 17.8202 45.1879 17.8195C45.1882 17.8192 45.1882 17.819 45.1882 17.819C45.1884 17.8187 45.1884 17.8185 45.1884 17.8185C45.1887 17.8182 45.1887 17.8179 45.1887 17.8179C45.1887 17.8177 45.1889 17.8174 45.1889 17.8172C45.1889 17.8172 45.1895 17.8167 45.1895 17.8161C45.1895 17.8156 45.1892 17.8159 45.19 17.8151C45.19 17.8146 45.1902 17.8138 45.1902 17.8141C45.1905 17.8136 45.1907 17.8136 45.1907 17.8128C45.1912 17.8128 45.191 17.8123 45.1912 17.8118C45.1912 17.8115 45.1915 17.8108 45.1918 17.8108C45.1918 17.8103 45.1923 17.8098 45.1923 17.8098C45.1923 17.8095 45.1925 17.809 45.1925 17.8087H45.1928C45.1928 17.8082 45.193 17.808 45.1933 17.8075L46.3332 15.2359C45.7718 14.535 43.8253 12.4691 40.8407 13.1605C37.5103 13.9328 36.6139 15.776 36.2311 16.5631C36.1918 16.6437 36.1581 16.7125 36.1288 16.7672C35.8895 17.2121 35.409 18.7099 35.2437 19.2495C35.2113 19.3551 35.1455 19.4474 35.0565 19.5126C35.0251 19.5356 31.8831 21.8409 28.169 25.3872C24.4416 28.9463 15.6233 38.722 15.5348 38.8204C15.4873 38.8731 15.4294 38.9153 15.3646 38.9445L1.95907 44.9531C1.57212 45.1265 1.27624 45.4403 1.12498 45.8371C1.03698 46.0681 1.00459 46.311 1.02678 46.5501L15.0698 40.1824C14.9695 39.6096 15.2509 39.0595 15.7962 38.7711C16.0459 38.6389 16.3543 38.735 16.4854 38.9846C16.617 39.2347 16.5216 39.5439 16.2724 39.6756C16.1125 39.7602 16.047 39.8753 16.0771 40.0177C16.0852 40.0566 16.1018 40.0962 16.1248 40.1302C16.1301 40.1374 16.1357 40.1448 16.1408 40.1522C16.1747 40.1934 16.2194 40.2228 16.2709 40.2264C16.5699 40.242 18.3551 39.973 19.9322 39.7323C21.6142 39.4759 23.5203 39.1849 24.7906 39.0534C25.2495 39.0056 25.7369 38.9649 26.2455 38.9225C28.6644 38.7207 31.4061 38.4919 33.8148 37.3388C36.7739 35.9221 39.121 32.4699 39.7947 28.5438C40.4405 24.7786 37.9974 23.6432 37.9724 23.632C37.7151 23.5174 37.599 23.2152 37.7135 22.9569C37.8278 22.6986 38.1291 22.5823 38.3869 22.6973C38.4188 22.7116 41.5792 24.1762 40.7999 28.717C40.0719 32.9599 37.5026 36.7062 34.2545 38.2614C31.6773 39.4956 28.7123 39.7428 26.3302 39.9415C25.8287 39.9835 25.3477 40.0234 24.8957 40.0704C23.6496 40.1995 21.7562 40.4885 20.086 40.7432C17.8646 41.0823 16.5869 41.2748 16.2033 41.2465C15.9957 41.2327 15.7998 41.1628 15.6302 41.0503L1.4428 47.484ZM36.1813 41.6635C36.163 42.3126 36.2352 43.1488 36.4785 43.4214C36.5356 43.4855 36.5912 43.5075 36.6764 43.4988C36.9703 43.4743 37.42 43.1339 37.6582 42.7557C37.8051 42.5228 37.886 41.7669 37.9005 40.9874C37.3167 41.2529 36.7382 41.4761 36.1813 41.6635ZM46.6413 18.3537L47.1448 18.9214C47.2935 18.9053 47.5249 18.8613 47.8011 18.7426C47.9659 18.672 48.1422 18.5426 48.3041 18.4007C48.1144 18.3552 47.9215 18.3179 47.7432 18.2979C47.4392 18.2639 47.0222 18.2995 46.6413 18.3537ZM47.4805 17.2623C47.6114 17.2623 47.7376 17.2679 47.8557 17.2809C48.1952 17.3188 48.5646 17.4052 48.8916 17.4978C48.7895 17.2571 48.6503 17.0068 48.4631 16.8063C48.1348 16.4542 47.5859 16.1062 47.1675 15.8727L46.5176 17.3382C46.824 17.2958 47.1645 17.2623 47.4805 17.2623ZM42.3497 17.8246C41.4226 17.8246 40.668 17.0684 40.668 16.1386C40.668 15.2091 41.4226 14.4529 42.3497 14.4529C43.2772 14.4529 44.0314 15.2091 44.0314 16.1386C44.0314 17.0684 43.2772 17.8246 42.3497 17.8246ZM42.3497 15.4758C41.985 15.4758 41.6883 15.7732 41.6883 16.1386C41.6883 16.5043 41.985 16.8017 42.3497 16.8017C42.7145 16.8017 43.0111 16.5043 43.0111 16.1386C43.0111 15.7732 42.7145 15.4758 42.3497 15.4758Z" fill="#484343"/>
<path d="M16.0673 53.582C47.159 53.5819 96.1215 53.2922 124.933 54.2636" stroke="#477C4E" stroke-miterlimit="1.5" stroke-linecap="round" stroke-linejoin="round"/>
<path d="M18.0045 50.5909C49.0952 50.8476 98.0585 50.9624 126.861 52.1717" stroke="#DDBA41" stroke-miterlimit="1.5" stroke-linecap="round" stroke-linejoin="round"/>
<path d="M18.307 56.4585C48.2587 56.4585 86.7119 56.4589 126.473 56.4586" stroke="#E34D18" stroke-miterlimit="1.5" stroke-linecap="round" stroke-linejoin="round"/>
</svg>
