<svg width="20" height="20" viewBox="0 0 20 20" fill="none" xmlns="http://www.w3.org/2000/svg">
<path d="M9.99969 3.86268V15.9548C9.9997 16.1174 9.95135 16.2768 9.86019 16.4146C9.76903 16.5522 9.63878 16.6627 9.48444 16.7331C9.3301 16.8036 9.15795 16.8312 8.98781 16.8128C8.81768 16.7944 8.65648 16.7306 8.52278 16.629L4.22604 13.3635H2.72765C2.00452 13.3628 1.31121 13.0897 0.799847 12.6039C0.288482 12.1182 0.000827253 11.4596 0 10.7726V9.04485C0.000827253 8.35787 0.288482 7.69928 0.799847 7.21354C1.31121 6.72781 2.00452 6.45464 2.72765 6.45395H4.22721L8.52395 3.18843C8.65766 3.08711 8.81875 3.0237 8.9887 3.00546C9.15865 2.98722 9.33056 3.0149 9.4847 3.08532C9.63883 3.15574 9.76892 3.26604 9.86002 3.40356C9.95112 3.54107 9.99953 3.7002 9.99969 3.86268ZM17.6557 9.90498L19.7338 7.93086C19.9042 7.76891 20 7.54927 20 7.32024C20 7.09122 19.9042 6.87157 19.7338 6.70963C19.5633 6.54769 19.3321 6.4567 19.091 6.4567C18.8499 6.4567 18.6187 6.54769 18.4483 6.70963L16.3667 8.68416L14.2792 6.70518C14.1083 6.54332 13.8767 6.45262 13.6354 6.453C13.394 6.45339 13.1627 6.54483 12.9924 6.70722C12.822 6.8696 12.7265 7.08963 12.7269 7.3189C12.7273 7.54817 12.8236 7.7679 12.9945 7.92975L15.0808 9.90726L12.9953 11.8881C12.8248 12.05 12.7291 12.2697 12.7291 12.4987C12.7291 12.7277 12.8248 12.9474 12.9953 13.1093C13.1658 13.2713 13.397 13.3622 13.6381 13.3622C13.8791 13.3622 14.1103 13.2713 14.2808 13.1093L16.3675 11.127L18.4322 13.0844C18.6032 13.2463 18.8348 13.337 19.0761 13.3367C19.3175 13.3363 19.5488 13.2448 19.7191 13.0824C19.8895 12.92 19.985 12.7 19.9846 12.4707C19.9842 12.2414 19.8879 12.0218 19.717 11.8599L17.6557 9.90498Z" fill="#484343" fill-opacity="0.25"/>
</svg>
