<svg width="20" height="20" viewBox="0 0 20 20" fill="none" xmlns="http://www.w3.org/2000/svg">
<path d="M9.1668 4.1668V15.8332C9.16699 15.9903 9.12277 16.1443 9.03922 16.2773C8.95568 16.4104 8.83623 16.5171 8.69465 16.5851C8.55306 16.6532 8.39512 16.6799 8.23903 16.6621C8.08295 16.6442 7.93508 16.5826 7.8125 16.4844L3.87422 13.3332H2.5C1.83718 13.3325 1.20172 13.0689 0.733032 12.6002C0.264348 12.1315 0.000723772 11.496 0 10.8332V9.1668C0.000723772 8.50398 0.264348 7.86852 0.733032 7.39983C1.20172 6.93115 1.83718 6.66752 2.5 6.6668H3.87422L7.8125 3.51563C7.93506 3.41751 8.08285 3.35602 8.23884 3.33824C8.39483 3.32046 8.55266 3.34712 8.69416 3.41513C8.83566 3.48314 8.95507 3.58975 9.03862 3.72267C9.12217 3.85559 9.16647 4.00941 9.16641 4.16641L9.1668 4.1668ZM11.2805 7.70899C11.2001 7.78325 11.1351 7.87263 11.0892 7.97202C11.0434 8.0714 11.0175 8.17885 11.0132 8.28822C11.0089 8.39759 11.0262 8.50674 11.0641 8.60944C11.1019 8.71213 11.1597 8.80635 11.234 8.88672C11.5121 9.1908 11.6663 9.58794 11.6663 10C11.6663 10.4121 11.5121 10.8092 11.234 11.1133C11.1596 11.1936 11.1018 11.2879 11.0638 11.3906C11.0258 11.4933 11.0085 11.6025 11.0127 11.7119C11.0169 11.8213 11.0427 11.9288 11.0884 12.0283C11.1342 12.1277 11.1991 12.2172 11.2795 12.2916C11.3599 12.366 11.4541 12.4238 11.5568 12.4618C11.6595 12.4997 11.7687 12.5171 11.8781 12.5129C11.9875 12.5087 12.095 12.4829 12.1945 12.4372C12.2939 12.3914 12.3834 12.3265 12.4578 12.2461C13.0208 11.634 13.3333 10.8328 13.3333 10.0012C13.3333 9.16956 13.0208 8.36831 12.4578 7.75625C12.308 7.5939 12.0998 7.49769 11.879 7.48876C11.6582 7.47982 11.443 7.55889 11.2805 7.7086V7.70899ZM14.8047 5.38555C14.6517 5.22611 14.4416 5.13398 14.2206 5.12944C13.9997 5.1249 13.786 5.20831 13.6266 5.36133C13.4671 5.51435 13.375 5.72444 13.3705 5.94538C13.3659 6.16632 13.4493 6.38002 13.6023 6.53946C14.4986 7.4686 14.9995 8.70922 14.9995 10.0002C14.9995 11.2912 14.4986 12.5318 13.6023 13.4609C13.5266 13.5399 13.4671 13.633 13.4273 13.7349C13.3875 13.8368 13.3682 13.9456 13.3705 14.055C13.3727 14.1644 13.3965 14.2723 13.4404 14.3725C13.4844 14.4727 13.5476 14.5633 13.6266 14.6391C13.7055 14.7148 13.7986 14.7743 13.9005 14.8141C14.0025 14.8539 14.1112 14.8732 14.2206 14.871C14.33 14.8687 14.4379 14.8449 14.5381 14.801C14.6383 14.757 14.7289 14.6938 14.8047 14.6148C15.9989 13.3754 16.6661 11.7213 16.6661 10.0002C16.6661 8.27907 15.9989 6.62497 14.8047 5.38555ZM17.1625 3.01836C17.007 2.86559 16.7978 2.7798 16.5799 2.77939C16.3619 2.77898 16.1524 2.86398 15.9963 3.01617C15.8402 3.16835 15.75 3.37563 15.7449 3.59356C15.7398 3.81149 15.8203 4.02274 15.9691 4.18203C17.4847 5.73964 18.3327 7.82714 18.3327 10.0004C18.3327 12.1737 17.4847 14.2611 15.9691 15.8188C15.8203 15.978 15.7398 16.1893 15.7449 16.4072C15.75 16.6252 15.8402 16.8324 15.9963 16.9846C16.1524 17.1368 16.3619 17.2218 16.5799 17.2214C16.7978 17.221 17.007 17.1352 17.1625 16.9824C18.9814 15.1134 19.9992 12.6084 19.9992 10.0004C19.9992 7.3924 18.9814 4.88736 17.1625 3.01836Z" fill="#484343"/>
</svg>
